<?xml version="1.0" encoding="utf-8"?>
<!-- Generator: Adobe Illustrator 17.0.0, SVG Export Plug-In . SVG Version: 6.00 Build 0)  -->
<!DOCTYPE svg PUBLIC "-//W3C//DTD SVG 1.1 Tiny//EN" "http://www.w3.org/Graphics/SVG/1.1/DTD/svg11-tiny.dtd">
<svg version="1.1" baseProfile="tiny" id="icon" xmlns="http://www.w3.org/2000/svg" xmlns:xlink="http://www.w3.org/1999/xlink"
	 x="0px" y="0px" width="48.843px" height="85.573px" viewBox="-25.676 -78.4 48.843 85.573" xml:space="preserve">
<g id="XMLID_1_">
	<g>
		<g>
			<path fill="#FFFFFF" d="M-1.254-78.4c-13.486,0-24.422,10.934-24.422,24.419c0,5.491,1.815,10.559,4.869,14.636
				c0.01,0.006,0.015,0.016,0.015,0.021c0.581,0.853,19.286,28.28,19.537,46.498c0.252-18.218,18.957-45.645,19.538-46.498
				c0.01-0.015,0.015-0.021,0.015-0.021c3.055-4.077,4.869-9.145,4.869-14.636C23.167-67.465,12.233-78.4-1.254-78.4z
				 M-1.254-65.548c6.103,0,11.055,4.951,11.055,11.053S4.849-43.442-1.254-43.442s-11.054-4.951-11.054-11.053
				C-12.308-60.597-7.358-65.548-1.254-65.548z"/>
		</g>
	</g>
</g>
</svg>
