<?xml version="1.0" encoding="utf-8"?>
<!-- Generator: Adobe Illustrator 14.0.0, SVG Export Plug-In . SVG Version: 6.00 Build 43363)  -->
<!DOCTYPE svg PUBLIC "-//W3C//DTD SVG 1.1//EN" "http://www.w3.org/Graphics/SVG/1.1/DTD/svg11.dtd">
<svg version="1.1" id="Layer_1" xmlns="http://www.w3.org/2000/svg" xmlns:xlink="http://www.w3.org/1999/xlink" x="0px" y="0px"
	 width="291px" height="265px" viewBox="0 0 291 265" enable-background="new 0 0 291 265" xml:space="preserve">
<rect x="236.708" y="202.717" fill="#231F20" width="4.215" height="7.607"/>
<g>
	<path fill="#F05A28" d="M24.29,221.131c-1.366,1.013-3.798,1.52-7.298,1.52h-2.654v-12.178h2.949c2.32,0,4.074,0.207,5.264,0.619
		c1.188,0.412,2.118,1.102,2.787,2.062c0.667,0.966,1.003,2.096,1.003,3.392C26.341,218.591,25.656,220.118,24.29,221.131
		 M31.367,207.287c-1.031-1.161-2.153-2.068-3.362-2.728c-1.208-0.658-2.59-1.128-4.142-1.415c-1.553-0.285-3.746-0.428-6.576-0.428
		H6.052v44.701h8.286v-17.043h2.949c4.481,0,7.799-0.471,9.952-1.415c2.153-0.943,3.921-2.508,5.308-4.688
		c1.386-2.184,2.078-4.748,2.078-7.698c0-1.944-0.285-3.691-0.854-5.233C33.201,209.798,32.399,208.444,31.367,207.287"/>
	<path fill="#F05A28" d="M150.746,238.042c-1.839,2.063-4.163,3.099-6.974,3.099c-1.67,0-3.279-0.441-4.82-1.315
		c-1.544-0.875-2.769-2.127-3.672-3.758c-0.904-1.632-1.356-3.42-1.356-5.368c0-1.984,0.457-3.794,1.37-5.425
		c0.915-1.632,2.173-2.899,3.775-3.803c1.601-0.904,3.18-1.359,4.732-1.359c1.572,0,3.13,0.458,4.674,1.373
		c1.543,0.913,2.766,2.212,3.672,3.892c0.903,1.683,1.354,3.465,1.354,5.352C153.502,233.539,152.584,235.979,150.746,238.042
		 M87.678,238.042c-1.839,2.063-4.164,3.099-6.975,3.099c-1.672,0-3.278-0.441-4.821-1.315c-1.542-0.875-2.768-2.127-3.671-3.758
		c-0.904-1.632-1.357-3.42-1.357-5.368c0-1.984,0.458-3.794,1.371-5.425c0.916-1.632,2.172-2.899,3.776-3.803
		c1.601-0.904,3.179-1.359,4.732-1.359c1.573,0,3.131,0.458,4.673,1.373c1.543,0.913,2.767,2.212,3.671,3.892
		c0.904,1.683,1.357,3.465,1.357,5.352C90.435,233.539,89.515,235.979,87.678,238.042 M152.649,215.131
		c-2.813-1.574-5.769-2.358-8.877-2.358c-3.085,0-6.045,0.79-8.876,2.374c-2.831,1.582-5.038,3.784-6.619,6.604
		c-0.522,0.93-0.949,1.875-1.298,2.838c-0.054-0.657-0.122-1.22-0.204-1.674c-0.335-1.808-0.924-3.32-1.77-4.54
		c-1.101-1.571-2.634-2.9-4.6-3.979c-1.965-1.081-4.097-1.624-6.398-1.624c-1.808,0-3.436,0.32-4.88,0.96
		c-1.446,0.639-2.896,1.665-4.351,3.08v-2.919h-7.429v10.453c-0.335-0.917-0.736-1.813-1.222-2.685
		c-1.553-2.778-3.734-4.957-6.546-6.529c-2.811-1.574-5.77-2.358-8.876-2.358c-3.086,0-6.045,0.79-8.876,2.374
		c-2.83,1.582-5.037,3.784-6.619,6.604c-0.561,0.998-1.017,2.017-1.379,3.052c-0.216-2.188-0.637-3.954-1.274-5.278
		c-0.942-1.986-2.525-3.606-4.746-4.865c-2.222-1.257-4.552-1.888-6.99-1.888c-3.185,0-6.025,1.16-8.522,3.479v-13.532h-8.02v44.701
		h8.02v-17.044c0-2.712,0.227-4.726,0.679-6.044c0.452-1.315,1.224-2.347,2.315-3.097c1.091-0.745,2.393-1.118,3.907-1.118
		c1.632,0,2.968,0.417,4.01,1.252c1.042,0.834,1.759,1.916,2.153,3.244c0.393,1.325,0.59,3.208,0.59,5.647v17.159h8.05v-10.476
		c0.174,0.448,0.36,0.897,0.572,1.335c0.885,1.849,2.113,3.565,3.686,5.146c1.573,1.582,3.45,2.826,5.633,3.729
		c2.182,0.906,4.452,1.358,6.811,1.358c1.632,0,3.264-0.228,4.895-0.68c1.632-0.451,3.151-1.09,4.556-1.917
		c1.405-0.823,2.762-1.983,4.07-3.479c1.306-1.491,2.338-3.246,3.095-5.26c0.011-0.029,0.017-0.061,0.028-0.085v10.328h8.021v-15.95
		c0-3.245,0.235-5.545,0.707-6.901c0.451-1.338,1.273-2.414,2.462-3.229c1.19-0.817,2.561-1.223,4.114-1.223
		c1.433,0,2.654,0.343,3.657,1.03c1.002,0.688,1.719,1.72,2.151,3.097c0.414,1.376,0.62,3.587,0.62,6.635v16.541h8.05v-10.321
		c0.158,0.396,0.325,0.792,0.514,1.181c0.884,1.849,2.112,3.565,3.685,5.146c1.574,1.582,3.451,2.826,5.633,3.729
		c2.182,0.906,4.452,1.358,6.811,1.358c1.632,0,3.262-0.228,4.896-0.68c1.631-0.451,3.15-1.09,4.556-1.917
		c1.405-0.823,2.761-1.983,4.067-3.479c1.31-1.491,2.341-3.246,3.099-5.26c0.756-2.016,1.135-4.176,1.135-6.476
		c0-3.243-0.776-6.257-2.329-9.039C157.642,218.882,155.459,216.703,152.649,215.131"/>
	<path fill="#231F20" d="M194.444,237.703c-1.109,2.093-2.731,3.734-4.864,4.925c-2.135,1.189-4.408,1.783-6.827,1.783
		c-2.398,0-4.64-0.588-6.722-1.769c-2.084-1.181-3.717-2.827-4.896-4.939c-1.179-2.113-1.769-4.359-1.769-6.739
		c0-2.417,0.596-4.702,1.783-6.854c1.19-2.154,2.816-3.82,4.882-5c2.063-1.177,4.284-1.768,6.663-1.768c2.104,0,4,0.402,5.692,1.209
		c1.69,0.806,3.076,1.788,4.156,2.947c1.082,1.16,1.896,2.389,2.447,3.687c0.748,1.886,1.119,3.824,1.119,5.81
		C196.109,233.372,195.556,235.609,194.444,237.703 M195.182,218.506c-1.445-1.444-3.239-2.634-5.38-3.566
		c-2.144-0.934-4.503-1.401-7.077-1.401c-2.104,0-4.021,0.333-5.751,1.001c-1.729,0.669-3.243,1.557-4.54,2.657
		c-0.827,0.684-1.729,1.68-2.714,2.976h-0.118v-5.777h-4.216v44.611h4.216v-17.395h0.118c0.885,1.218,1.761,2.191,2.624,2.919
		c1.298,1.081,2.831,1.965,4.6,2.653c1.77,0.687,3.727,1.033,5.869,1.033c3.085,0,6.015-0.768,8.787-2.302s4.924-3.661,6.457-6.383
		s2.3-5.609,2.3-8.655c0-2.654-0.58-5.18-1.737-7.579C197.771,221.549,196.628,219.951,195.182,218.506"/>
	<path fill="#231F20" d="M228.677,218.257c-1.396-1.535-2.988-2.704-4.777-3.512c-1.788-0.804-3.794-1.206-6.016-1.206
		c-2.517,0-4.605,0.451-6.267,1.354c-1.661,0.904-3.062,2.145-4.201,3.716h-0.118v-15.893h-4.216v44.701h4.216v-18.164
		c0-1.729,0.196-3.278,0.59-4.642c0.394-1.366,0.885-2.453,1.475-3.261c0.826-1.12,1.939-2.069,3.347-2.846
		c1.406-0.777,3.013-1.164,4.821-1.164c3.009,0,5.49,1.042,7.446,3.126c1.954,2.083,2.934,5.011,2.934,8.786v18.164h4.217v-18.164
		c0-2.614-0.433-5.042-1.298-7.283C230.278,220.498,229.562,219.26,228.677,218.257"/>
</g>
<rect x="236.708" y="214.394" fill="#231F20" width="4.215" height="33.024"/>
<rect x="245.418" y="202.717" fill="#231F20" width="4.217" height="44.701"/>
<g>
	<path fill="#231F20" d="M256.841,228.635c0.314-1.651,0.792-3.112,1.432-4.393c0.639-1.278,1.519-2.423,2.64-3.435
		c1.118-1.014,2.432-1.844,3.934-2.494c1.505-0.647,3.13-0.972,4.882-0.972c1.789,0,3.464,0.351,5.027,1.048
		c1.562,0.697,2.886,1.572,3.966,2.625c1.081,1.052,1.921,2.16,2.522,3.332c0.599,1.168,1.064,2.6,1.398,4.288H256.841z
		 M286.948,231.024c0-3.008-0.771-5.898-2.315-8.668c-1.541-2.773-3.681-4.936-6.414-6.488c-2.73-1.552-5.553-2.329-8.461-2.329
		c-2.93,0-5.771,0.777-8.522,2.329c-2.751,1.553-4.896,3.701-6.43,6.443c-1.53,2.74-2.299,5.694-2.299,8.858
		c0,4.762,1.656,8.79,4.968,12.092c3.313,3.304,7.329,4.954,12.046,4.954c2.753,0,5.309-0.574,7.667-1.725
		c2.359-1.152,4.385-2.776,6.075-4.88c1.062-1.317,1.964-2.988,2.71-5.014h-4.479c-0.963,2.399-2.513,4.3-4.646,5.707
		c-2.131,1.403-4.526,2.107-7.181,2.107c-1.769,0-3.409-0.329-4.923-0.989c-1.516-0.656-2.847-1.519-3.996-2.58
		c-1.15-1.061-2.054-2.28-2.713-3.656c-0.659-1.374-1.058-2.959-1.194-4.749h30.077C286.938,231.83,286.948,231.359,286.948,231.024
		"/>
	<g>
		<path fill="#231F20" d="M172.13,11.055C130.097-2.821,84.775,20.003,70.897,62.037c-13.616,41.236,8.112,85.621,48.635,100.392
			V68.393h0v0h9.484v9.246c1.217-2.302,2.847-4.286,4.751-5.916c0.108-0.092,0.207-0.196,0.316-0.286
			c0.013-0.011,0.027-0.02,0.04-0.03c0.842-0.688,1.746-1.289,2.683-1.831c1.329-0.77,2.733-1.408,4.206-1.862
			c0.08-0.024,0.158-0.05,0.235-0.077s0.155-0.056,0.235-0.078c0.039-0.012,0.08-0.02,0.12-0.029
			c0.528-0.146,1.063-0.266,1.603-0.365c0.004-0.001,0.009-0.002,0.013-0.003c0.545-0.1,1.096-0.178,1.65-0.238
			c0.484-0.051,0.972-0.079,1.462-0.096c0.196-0.006,0.392-0.017,0.588-0.018c0.075,0,0.149-0.003,0.223-0.007
			c0.069-0.004,0.138-0.008,0.208-0.007c0.476,0.008,0.952,0.036,1.431,0.079c0.025,0.002,0.051,0.002,0.076,0.004
			c0.024,0.002,0.048,0.007,0.072,0.009c1.486,0.143,2.98,0.449,4.459,0.937c0.689,0.228,1.352,0.5,1.995,0.795
			c0.856,0.393,1.679,0.835,2.461,1.328c0.521,0.327,1.016,0.683,1.499,1.052c4.979,3.797,7.954,9.707,8.01,15.972v0v0
			c0,0.035-0.003,0.07-0.003,0.105c0.006,1.249-0.111,2.508-0.34,3.767c-0.163,0.903-0.373,1.805-0.669,2.702
			c-3.528,10.686-15.041,16.485-25.725,12.961c-0.506-0.167-1.002-0.353-1.486-0.556c-2.155-0.901-4.071-2.15-5.73-3.644
			c-0.602-0.542-1.175-1.109-1.705-1.714c-0.305-0.349-0.601-0.705-0.88-1.072c-0.68-0.892-1.274-1.841-1.798-2.827v68.557
			c39.901,9.235,80.989-13.308,94.084-52.968C236.977,70.256,214.155,24.932,172.13,11.055z"/>
		<path fill="#231F20" d="M146.232,89.559c0.32,0.104,0.646,0.14,0.964,0.116c0.005,0,0.013,0,0.019-0.003
			c0.32-0.026,0.63-0.114,0.911-0.254c0.007-0.003,0.012-0.007,0.018-0.011c0.282-0.141,0.536-0.338,0.748-0.578
			c0.005-0.004,0.01-0.009,0.014-0.016c0.211-0.241,0.379-0.53,0.487-0.852c0.001-0.004,0.004-0.007,0.005-0.009
			c0.312-0.959,0.011-1.959-0.674-2.613c-0.261-0.249-0.566-0.457-0.932-0.58c-0.902-0.292-1.833-0.025-2.487,0.58
			c-0.304,0.282-0.564,0.612-0.701,1.031c-0.438,1.327,0.285,2.748,1.608,3.185C146.219,89.559,146.226,89.555,146.232,89.559z"/>
	</g>
</g>
</svg>
