<?xml version="1.0" encoding="utf-8"?>
<!-- Generator: Adobe Illustrator 14.0.0, SVG Export Plug-In . SVG Version: 6.00 Build 43363)  -->
<!DOCTYPE svg PUBLIC "-//W3C//DTD SVG 1.1//EN" "http://www.w3.org/Graphics/SVG/1.1/DTD/svg11.dtd">
<svg version="1.1" id="Layer_1" xmlns="http://www.w3.org/2000/svg" xmlns:xlink="http://www.w3.org/1999/xlink" x="0px" y="0px"
	 width="396px" height="105px" viewBox="0 0 396 105" enable-background="new 0 0 396 105" xml:space="preserve">
<g>
	<path fill="#BE1E2D" d="M25.543,24.165c0-3.361-0.792-5.97-2.372-7.828c-1.66-2.055-4.131-3.082-7.412-3.082
		c-3.005,0-5.359,1.086-7.059,3.259c-1.581,2.016-2.37,4.566-2.37,7.651c0,3.121,0.709,5.631,2.134,7.53
		c0.081,0.039,0.176,0.121,0.297,0.237c1.662,2.058,3.993,3.086,6.998,3.086c3.003,0,5.386-1.018,7.146-3.057
		C24.662,29.926,25.543,27.328,25.543,24.165 M29.872,24.074v13.939c0,1.068-0.534,1.602-1.603,1.602h-1.124
		c-1.069,0-1.602-0.534-1.602-1.602v-2.64c-2.412,2.568-5.674,3.852-9.784,3.852c-4.349,0-7.77-1.462-10.261-4.387
		C3.167,32.109,2,28.552,2,24.165c0-4.39,1.207-7.965,3.618-10.735c2.648-3.005,6.089-4.506,10.318-4.506
		c3.994,0,7.306,1.155,9.978,3.853C28.585,15.476,29.772,19.331,29.872,24.074"/>
	<path d="M60.293,12.66C57.762,9.695,54.322,8.21,49.975,8.21c-3.955,0-7.157,1.305-9.606,3.914
		c-2.453,2.611-4.271,4.988-4.271,11.371c0.023,4.436,0,75.308,0,75.308c0,1.144,0.534,1.721,1.603,1.721h1.066
		c1.066,0,1.602-0.577,1.602-1.721v-63.37c2.449,2.609,5.651,3.912,9.606,3.912c4.543,0,8.026-1.52,10.436-4.566
		c0.117-0.119,0.179-0.238,0.179-0.357c2.172-2.607,3.263-6.206,3.263-10.792C63.853,19.084,62.664,15.428,60.293,12.66"/>
	<path fill="#00ADEE" d="M94.231,30.149c-0.666,2.864-2.274,5.181-4.821,6.942c0,0-2.969,2.267-8.006,2.134
		c-4.351,0-7.8-1.373-10.347-4.121c-2.553-2.747-3.827-6.233-3.827-10.467c0-4.624,1.313-8.398,3.942-11.325
		c2.631-2.927,6.236-4.389,10.822-4.389c2.848,0,5.299,0.692,7.355,2.077c2.448,1.622,3.974,3.777,4.566,6.462v0.356
		c0,0.712-0.217,1.186-0.653,1.425l-1.187,0.652c-0.195,0.118-0.454,0.176-0.77,0.176c-0.869,0-1.403-0.414-1.6-1.242
		c-0.831-3.718-3.42-5.576-7.768-5.576c-3.4,0-5.98,1.037-7.739,3.112c-1.759,2.076-2.638,4.833-2.638,8.272
		c0,3.165,0.828,5.656,2.491,7.475c1.736,1.936,4.168,2.904,7.294,2.904c2.053,0,3.853-0.475,5.393-1.424
		c1.7-1.027,2.748-2.492,3.144-4.386c0.357-1.148,0.928-1.722,1.719-1.722c0.238,0,0.474,0.06,0.715,0.179l-0.06-0.057l1.301,0.529
		C93.557,28.135,94.54,28.462,94.231,30.149"/>
	<path fill="#8BC53F" d="M140.645,37.092c0,0.436-0.178,0.809-0.534,1.124c-0.357,0.318-0.753,0.478-1.186,0.478h-1.128
		c-1.108,0-1.661-0.535-1.661-1.602V20.013c0-4.468-2.095-6.702-6.283-6.702c-2.295,0-4.153,0.663-5.576,1.986
		c-1.424,1.325-2.135,3.135-2.135,5.426v16.369c0,1.067-0.574,1.602-1.72,1.602h-1.126c-1.107,0-1.66-0.535-1.66-1.602V20.013
		c0-4.468-2.135-6.702-6.404-6.702c-2.454,0-4.391,0.207-5.814,2.106c-1.223,1.658-1.837,4.516-1.837,7.084v14.591
		c0,1.067-0.555,1.602-1.659,1.602h-1.128c-1.11,0-1.663-0.535-1.663-1.602v-15.76c0-8.906,5.469-10.814,6.022-11.149
		c0.554-0.335,3.705-1.141,6.67-1.141c3.835,0,6.663,1.364,8.481,4.093c2.053-2.729,5.219-4.093,9.489-4.093
		c7.233,0,10.852,3.48,10.852,10.436V37.092z"/>
	<path fill="#231F20" d="M170.318,14.978c0,0.729,0.198,1.323,0.589,1.78c0.4,0.465,0.906,0.696,1.513,0.696
		c0.651,0,1.178-0.223,1.577-0.672c0.402-0.465,0.603-1.053,0.603-1.765c0-0.713-0.201-1.302-0.603-1.766
		c-0.399-0.453-0.919-0.68-1.56-0.68c-0.604,0-1.111,0.232-1.517,0.689C170.519,13.723,170.318,14.295,170.318,14.978
		 M174.491,11.196h1.763v7.611h-1.763v-0.798c-0.726,0.676-1.503,1.015-2.335,1.015c-1.051,0-1.921-0.379-2.609-1.139
		c-0.683-0.777-1.024-1.746-1.024-2.907c0-1.139,0.341-2.091,1.024-2.851c0.681-0.76,1.533-1.139,2.561-1.139
		c0.886,0,1.679,0.364,2.383,1.091V11.196z"/>
	<path fill="#231F20" d="M182.896,12.496l-1.454,0.772c-0.227-0.463-0.511-0.697-0.85-0.697c-0.159,0-0.3,0.053-0.413,0.16
		c-0.115,0.107-0.172,0.244-0.172,0.412c0,0.291,0.336,0.579,1.016,0.866c0.931,0.4,1.56,0.768,1.881,1.107
		c0.323,0.337,0.486,0.793,0.486,1.366c0,0.732-0.272,1.346-0.813,1.841c-0.527,0.467-1.164,0.701-1.907,0.701
		c-1.274,0-2.18-0.621-2.71-1.867l1.499-0.693c0.21,0.364,0.367,0.596,0.478,0.693c0.213,0.197,0.467,0.297,0.763,0.297
		c0.595,0,0.892-0.269,0.892-0.813c0-0.312-0.23-0.602-0.687-0.873c-0.178-0.09-0.354-0.175-0.533-0.26
		c-0.176-0.082-0.353-0.168-0.539-0.258c-0.509-0.247-0.868-0.496-1.079-0.749c-0.264-0.318-0.397-0.725-0.397-1.225
		c0-0.662,0.23-1.208,0.681-1.644c0.465-0.429,1.026-0.645,1.685-0.645C181.7,10.987,182.421,11.49,182.896,12.496"/>
	<path fill="#231F20" d="M189.388,12.496l-1.454,0.772c-0.229-0.463-0.512-0.697-0.851-0.697c-0.16,0-0.299,0.053-0.414,0.16
		c-0.114,0.107-0.172,0.244-0.172,0.412c0,0.291,0.337,0.579,1.016,0.866c0.932,0.4,1.56,0.768,1.883,1.107
		c0.323,0.337,0.484,0.793,0.484,1.366c0,0.732-0.272,1.346-0.813,1.841c-0.526,0.467-1.161,0.701-1.904,0.701
		c-1.278,0-2.183-0.621-2.713-1.867l1.5-0.693c0.208,0.364,0.369,0.596,0.477,0.693c0.213,0.197,0.466,0.297,0.766,0.297
		c0.591,0,0.889-0.269,0.889-0.813c0-0.312-0.23-0.602-0.686-0.873c-0.176-0.09-0.355-0.175-0.533-0.26
		c-0.176-0.082-0.355-0.168-0.538-0.258c-0.51-0.247-0.866-0.496-1.078-0.749c-0.267-0.318-0.4-0.725-0.4-1.225
		c0-0.662,0.228-1.208,0.68-1.644c0.464-0.429,1.028-0.645,1.688-0.645C188.188,10.987,188.914,11.49,189.388,12.496"/>
	<path fill="#231F20" d="M192.893,14.978c0,0.76,0.205,1.362,0.611,1.805c0.418,0.446,0.967,0.671,1.648,0.671
		c0.69,0,1.237-0.221,1.648-0.665c0.411-0.443,0.619-1.033,0.619-1.772c0-0.74-0.208-1.33-0.619-1.772
		c-0.417-0.449-0.965-0.674-1.648-0.674c-0.673,0-1.216,0.225-1.632,0.674C193.104,13.692,192.893,14.27,192.893,14.978
		 M191.099,14.947c0-1.097,0.392-2.034,1.18-2.804c0.785-0.772,1.743-1.155,2.873-1.155c1.135,0,2.101,0.386,2.892,1.161
		c0.778,0.777,1.172,1.729,1.172,2.859c0,1.14-0.395,2.098-1.182,2.868c-0.79,0.764-1.763,1.148-2.915,1.148
		c-1.138,0-2.092-0.392-2.867-1.17C191.484,17.082,191.099,16.115,191.099,14.947"/>
	<path fill="#231F20" d="M206.994,11.525v2.337c-0.4-0.49-0.761-0.827-1.077-1.008c-0.314-0.187-0.68-0.283-1.103-0.283
		c-0.663,0-1.209,0.232-1.649,0.697c-0.438,0.462-0.654,1.042-0.654,1.742c0,0.712,0.211,1.3,0.63,1.757
		c0.428,0.458,0.974,0.688,1.633,0.688c0.423,0,0.795-0.092,1.118-0.275c0.314-0.176,0.68-0.52,1.103-1.033v2.322
		c-0.713,0.37-1.427,0.556-2.144,0.556c-1.175,0-2.158-0.38-2.948-1.142c-0.794-0.763-1.188-1.714-1.188-2.852
		c0-1.134,0.397-2.092,1.202-2.873c0.801-0.781,1.788-1.172,2.953-1.172C205.618,10.986,206.33,11.167,206.994,11.525"/>
	<path fill="#231F20" d="M210.457,18.807h-1.759v-7.609h1.759V18.807z M208.432,8.033c0-0.305,0.112-0.572,0.337-0.797
		c0.222-0.221,0.492-0.336,0.802-0.336c0.32,0,0.59,0.115,0.812,0.336c0.225,0.222,0.337,0.488,0.337,0.805
		c0,0.32-0.112,0.59-0.337,0.813c-0.219,0.224-0.486,0.336-0.804,0.336c-0.315,0-0.589-0.112-0.811-0.336
		C208.544,8.631,208.432,8.358,208.432,8.033"/>
	<path fill="#231F20" d="M214.116,14.978c0,0.729,0.198,1.323,0.587,1.78c0.402,0.465,0.906,0.696,1.517,0.696
		c0.649,0,1.176-0.223,1.578-0.672c0.4-0.465,0.601-1.053,0.601-1.765c0-0.713-0.2-1.302-0.601-1.766
		c-0.402-0.453-0.923-0.68-1.563-0.68c-0.605,0-1.11,0.232-1.514,0.689C214.318,13.723,214.116,14.295,214.116,14.978
		 M218.288,11.196h1.766v7.611h-1.766v-0.798c-0.726,0.676-1.501,1.015-2.334,1.015c-1.052,0-1.922-0.379-2.608-1.139
		c-0.681-0.777-1.024-1.746-1.024-2.907c0-1.139,0.344-2.091,1.024-2.851c0.681-0.76,1.535-1.139,2.561-1.139
		c0.885,0,1.679,0.364,2.382,1.091V11.196z"/>
	<polygon fill="#231F20" points="224.087,12.838 224.087,18.808 222.327,18.808 222.327,12.838 221.578,12.838 221.578,11.197 
		222.327,11.197 222.327,8.411 224.087,8.411 224.087,11.197 225.449,11.197 225.449,12.838 	"/>
	<path fill="#231F20" d="M228.403,18.807h-1.76v-7.609h1.76V18.807z M226.381,8.033c0-0.305,0.112-0.572,0.337-0.797
		c0.223-0.221,0.493-0.336,0.805-0.336c0.317,0,0.59,0.115,0.812,0.336c0.222,0.222,0.334,0.488,0.334,0.805
		c0,0.32-0.112,0.59-0.334,0.813c-0.22,0.224-0.488,0.336-0.806,0.336c-0.316,0-0.589-0.112-0.812-0.336
		C226.493,8.631,226.381,8.358,226.381,8.033"/>
	<path fill="#231F20" d="M232.067,14.978c0,0.76,0.202,1.362,0.608,1.805c0.418,0.446,0.967,0.671,1.648,0.671
		c0.688,0,1.238-0.221,1.647-0.665c0.411-0.443,0.619-1.033,0.619-1.772c0-0.74-0.208-1.33-0.619-1.772
		c-0.414-0.449-0.963-0.674-1.647-0.674c-0.673,0-1.217,0.225-1.632,0.674C232.274,13.692,232.067,14.27,232.067,14.978
		 M230.271,14.947c0-1.097,0.393-2.034,1.178-2.804c0.786-0.772,1.744-1.155,2.875-1.155c1.136,0,2.101,0.386,2.891,1.161
		c0.782,0.777,1.173,1.729,1.173,2.859c0,1.14-0.394,2.098-1.182,2.868c-0.79,0.764-1.762,1.148-2.912,1.148
		c-1.143,0-2.096-0.392-2.868-1.17C230.654,17.082,230.271,16.115,230.271,14.947"/>
	<path fill="#231F20" d="M240.247,11.196h1.763v0.706c0.615-0.611,1.311-0.914,2.08-0.914c0.885,0,1.573,0.276,2.07,0.835
		c0.425,0.473,0.642,1.246,0.642,2.318v4.666h-1.769V14.56c0-0.747-0.103-1.264-0.311-1.553c-0.203-0.29-0.574-0.436-1.111-0.436
		c-0.583,0-0.994,0.192-1.238,0.577c-0.242,0.38-0.363,1.045-0.363,1.992v3.667h-1.763V11.196z"/>
	<path fill="#231F20" d="M255.389,14.978c0,0.73,0.199,1.324,0.589,1.781c0.402,0.463,0.906,0.695,1.516,0.695
		c0.65,0,1.177-0.222,1.577-0.671c0.402-0.465,0.602-1.053,0.602-1.766s-0.199-1.301-0.602-1.766c-0.4-0.452-0.92-0.68-1.561-0.68
		c-0.606,0-1.113,0.232-1.519,0.689C255.592,13.722,255.389,14.295,255.389,14.978 M259.562,5.612h1.766v13.194h-1.766v-0.798
		c-0.69,0.677-1.474,1.015-2.35,1.015c-1.044,0-1.906-0.379-2.595-1.139c-0.682-0.777-1.021-1.746-1.021-2.907
		c0-1.134,0.34-2.08,1.021-2.843c0.678-0.764,1.53-1.147,2.556-1.147c0.89,0,1.688,0.365,2.389,1.092V5.612z"/>
	<path fill="#231F20" d="M268.671,13.978c-0.244-0.936-0.834-1.408-1.774-1.408c-0.211,0-0.411,0.034-0.6,0.1
		c-0.188,0.066-0.36,0.159-0.513,0.282c-0.152,0.12-0.282,0.269-0.395,0.442c-0.111,0.17-0.191,0.364-0.248,0.584H268.671z
		 M270.476,15.415h-5.452c0.048,0.625,0.25,1.124,0.608,1.491c0.359,0.365,0.821,0.547,1.384,0.547c0.438,0,0.798-0.104,1.086-0.311
		c0.28-0.209,0.6-0.592,0.96-1.155l1.485,0.827c-0.231,0.391-0.473,0.726-0.728,1.005c-0.255,0.275-0.528,0.506-0.816,0.686
		c-0.296,0.179-0.609,0.311-0.947,0.395c-0.34,0.082-0.708,0.122-1.103,0.122c-1.136,0-2.047-0.363-2.733-1.092
		c-0.688-0.735-1.03-1.707-1.03-2.92c0-1.205,0.331-2.177,0.998-2.924c0.672-0.732,1.562-1.099,2.671-1.099
		c1.121,0,2.005,0.357,2.656,1.071c0.646,0.707,0.969,1.688,0.969,2.944L270.476,15.415z"/>
	<path fill="#231F20" d="M276.819,12.496l-1.453,0.772c-0.231-0.463-0.514-0.697-0.852-0.697c-0.163,0-0.3,0.053-0.414,0.16
		c-0.116,0.107-0.172,0.244-0.172,0.412c0,0.291,0.337,0.579,1.017,0.866c0.932,0.4,1.559,0.768,1.882,1.107
		c0.319,0.337,0.481,0.793,0.481,1.366c0,0.732-0.27,1.346-0.812,1.841c-0.525,0.467-1.16,0.701-1.906,0.701
		c-1.274,0-2.18-0.621-2.71-1.867l1.499-0.693c0.21,0.364,0.37,0.596,0.476,0.693c0.215,0.197,0.468,0.297,0.769,0.297
		c0.593,0,0.889-0.269,0.889-0.813c0-0.312-0.228-0.602-0.688-0.873c-0.177-0.09-0.353-0.175-0.53-0.26
		c-0.175-0.082-0.357-0.168-0.538-0.258c-0.51-0.247-0.872-0.496-1.079-0.749c-0.266-0.318-0.398-0.725-0.398-1.225
		c0-0.662,0.229-1.208,0.68-1.644c0.464-0.429,1.026-0.645,1.688-0.645C275.62,10.987,276.342,11.49,276.819,12.496"/>
	<path fill="#231F20" d="M289.761,15.048c0-0.727-0.197-1.323-0.594-1.78c-0.402-0.464-0.906-0.697-1.516-0.697
		c-0.644,0-1.168,0.226-1.568,0.673c-0.402,0.448-0.601,1.038-0.601,1.764c0,0.713,0.198,1.303,0.601,1.766
		c0.394,0.455,0.913,0.68,1.562,0.68c0.607,0,1.11-0.229,1.508-0.688C289.557,16.309,289.761,15.734,289.761,15.048 M285.582,22.944
		h-1.757V11.196h1.757v0.831c0.694-0.695,1.479-1.039,2.356-1.039c1.051,0,1.911,0.382,2.588,1.155
		c0.688,0.767,1.03,1.731,1.03,2.896c0,1.141-0.34,2.091-1.021,2.853c-0.678,0.754-1.53,1.132-2.562,1.132
		c-0.89,0-1.688-0.358-2.391-1.07V22.944z"/>
	<path fill="#231F20" d="M293.415,11.196h1.761v0.68c0.321-0.336,0.608-0.569,0.855-0.695c0.259-0.129,0.559-0.193,0.908-0.193
		c0.464,0,0.949,0.152,1.452,0.452l-0.803,1.609c-0.334-0.241-0.658-0.36-0.977-0.36c-0.959,0-1.437,0.726-1.437,2.172v3.946h-1.761
		V11.196z"/>
	<path fill="#231F20" d="M300.694,14.978c0,0.76,0.206,1.362,0.61,1.805c0.418,0.446,0.969,0.671,1.649,0.671
		c0.688,0,1.236-0.221,1.647-0.665c0.411-0.443,0.619-1.033,0.619-1.772c0-0.74-0.208-1.33-0.619-1.772
		c-0.414-0.449-0.965-0.674-1.647-0.674c-0.672,0-1.217,0.225-1.633,0.674C300.906,13.692,300.694,14.27,300.694,14.978
		 M298.9,14.947c0-1.097,0.395-2.034,1.181-2.804c0.784-0.772,1.742-1.155,2.873-1.155c1.135,0,2.099,0.386,2.892,1.161
		c0.782,0.777,1.17,1.729,1.17,2.859c0,1.14-0.393,2.098-1.181,2.868c-0.79,0.764-1.762,1.148-2.913,1.148
		c-1.138,0-2.093-0.392-2.865-1.17C299.286,17.082,298.9,16.115,298.9,14.947"/>
	<path fill="#231F20" d="M310.694,12.838v5.969h-1.762v-5.969h-0.627v-1.641h0.627V8.259c0-0.955,0.166-1.635,0.5-2.031
		c0.456-0.551,1.124-0.828,1.998-0.828c0.311,0,0.706,0.093,1.18,0.275v1.796l-0.182-0.093c-0.38-0.193-0.689-0.288-0.938-0.288
		c-0.312,0-0.521,0.109-0.633,0.334c-0.108,0.217-0.164,0.641-0.164,1.265v2.508h1.916v1.641H310.694z"/>
	<path fill="#231F20" d="M318.989,13.978c-0.244-0.936-0.833-1.408-1.774-1.408c-0.211,0-0.413,0.034-0.597,0.1
		c-0.189,0.066-0.36,0.159-0.516,0.282c-0.152,0.12-0.284,0.269-0.394,0.442c-0.109,0.17-0.192,0.364-0.248,0.584H318.989z
		 M320.794,15.415h-5.453c0.048,0.625,0.252,1.124,0.61,1.491c0.363,0.365,0.821,0.547,1.387,0.547c0.436,0,0.796-0.104,1.082-0.311
		c0.283-0.209,0.603-0.592,0.962-1.155l1.483,0.827c-0.231,0.391-0.475,0.726-0.728,1.005c-0.254,0.275-0.527,0.506-0.817,0.686
		c-0.295,0.179-0.608,0.311-0.944,0.395c-0.341,0.082-0.709,0.122-1.104,0.122c-1.137,0-2.046-0.363-2.733-1.092
		c-0.688-0.735-1.032-1.707-1.032-2.92c0-1.205,0.333-2.177,1-2.924c0.67-0.732,1.564-1.099,2.672-1.099
		c1.119,0,2.003,0.357,2.657,1.071c0.645,0.707,0.966,1.688,0.966,2.944L320.794,15.415z"/>
	<path fill="#231F20" d="M327.139,12.496l-1.451,0.772c-0.23-0.463-0.515-0.697-0.853-0.697c-0.162,0-0.3,0.053-0.414,0.16
		c-0.117,0.107-0.172,0.244-0.172,0.412c0,0.291,0.337,0.579,1.015,0.866c0.934,0.4,1.562,0.768,1.884,1.107
		c0.32,0.337,0.481,0.793,0.481,1.366c0,0.732-0.27,1.346-0.81,1.841c-0.527,0.467-1.162,0.701-1.909,0.701
		c-1.271,0-2.176-0.621-2.708-1.867l1.498-0.693c0.211,0.364,0.369,0.596,0.477,0.693c0.214,0.197,0.468,0.297,0.768,0.297
		c0.592,0,0.889-0.269,0.889-0.813c0-0.312-0.228-0.602-0.687-0.873c-0.178-0.09-0.354-0.175-0.532-0.26
		c-0.176-0.082-0.356-0.168-0.536-0.258c-0.511-0.247-0.87-0.496-1.079-0.749c-0.265-0.318-0.401-0.725-0.401-1.225
		c0-0.662,0.229-1.208,0.681-1.644c0.466-0.429,1.025-0.645,1.688-0.645C325.941,10.987,326.663,11.49,327.139,12.496"/>
	<path fill="#231F20" d="M333.629,12.496l-1.454,0.772c-0.229-0.463-0.512-0.697-0.852-0.697c-0.161,0-0.299,0.053-0.413,0.16
		c-0.113,0.107-0.173,0.244-0.173,0.412c0,0.291,0.339,0.579,1.017,0.866c0.932,0.4,1.562,0.768,1.883,1.107
		c0.322,0.337,0.483,0.793,0.483,1.366c0,0.732-0.27,1.346-0.812,1.841c-0.527,0.467-1.161,0.701-1.905,0.701
		c-1.277,0-2.179-0.621-2.713-1.867l1.501-0.693c0.208,0.364,0.366,0.596,0.479,0.693c0.212,0.197,0.466,0.297,0.764,0.297
		c0.594,0,0.89-0.269,0.89-0.813c0-0.312-0.23-0.602-0.688-0.873c-0.176-0.09-0.353-0.175-0.531-0.26
		c-0.175-0.082-0.357-0.168-0.537-0.258c-0.512-0.247-0.87-0.496-1.079-0.749c-0.264-0.318-0.399-0.725-0.399-1.225
		c0-0.662,0.229-1.208,0.683-1.644c0.46-0.429,1.025-0.645,1.687-0.645C332.43,10.987,333.155,11.49,333.629,12.496"/>
	<path fill="#231F20" d="M337.456,18.807h-1.76v-7.609h1.76V18.807z M335.435,8.033c0-0.305,0.109-0.572,0.334-0.797
		c0.222-0.221,0.493-0.336,0.804-0.336c0.321,0,0.59,0.115,0.813,0.336c0.224,0.222,0.336,0.488,0.336,0.805
		c0,0.32-0.112,0.59-0.336,0.813c-0.219,0.224-0.486,0.336-0.804,0.336c-0.316,0-0.592-0.112-0.813-0.336
		C335.544,8.631,335.435,8.358,335.435,8.033"/>
	<path fill="#231F20" d="M341.119,14.978c0,0.76,0.202,1.362,0.61,1.805c0.416,0.446,0.964,0.671,1.646,0.671
		c0.688,0,1.239-0.221,1.65-0.665c0.407-0.443,0.617-1.033,0.617-1.772c0-0.74-0.21-1.33-0.617-1.772
		c-0.416-0.449-0.967-0.674-1.65-0.674c-0.673,0-1.215,0.225-1.633,0.674C341.326,13.692,341.119,14.27,341.119,14.978
		 M339.322,14.947c0-1.097,0.393-2.034,1.181-2.804c0.785-0.772,1.742-1.155,2.873-1.155c1.137,0,2.101,0.386,2.893,1.161
		c0.779,0.777,1.172,1.729,1.172,2.859c0,1.14-0.394,2.098-1.184,2.868c-0.79,0.764-1.762,1.148-2.912,1.148
		c-1.137,0-2.096-0.392-2.868-1.17C339.71,17.082,339.322,16.115,339.322,14.947"/>
	<path fill="#231F20" d="M349.299,11.196h1.764v0.706c0.617-0.611,1.309-0.914,2.078-0.914c0.885,0,1.575,0.276,2.07,0.835
		c0.427,0.473,0.642,1.246,0.642,2.318v4.666h-1.767V14.56c0-0.747-0.104-1.264-0.313-1.553c-0.201-0.29-0.571-0.436-1.109-0.436
		c-0.579,0-0.993,0.192-1.238,0.577c-0.242,0.38-0.362,1.045-0.362,1.992v3.667h-1.764V11.196z"/>
	<path fill="#231F20" d="M358.07,11.196h1.765v0.706c0.615-0.611,1.309-0.914,2.078-0.914c0.884,0,1.573,0.276,2.067,0.835
		c0.428,0.473,0.643,1.246,0.643,2.318v4.666h-1.767V14.56c0-0.747-0.103-1.264-0.312-1.553c-0.203-0.29-0.571-0.436-1.11-0.436
		c-0.58,0-0.994,0.192-1.238,0.577c-0.242,0.38-0.361,1.045-0.361,1.992v3.667h-1.765V11.196z"/>
	<path fill="#231F20" d="M371.966,13.978c-0.243-0.936-0.836-1.408-1.774-1.408c-0.212,0-0.412,0.034-0.6,0.1
		c-0.188,0.066-0.357,0.159-0.512,0.282c-0.154,0.12-0.285,0.269-0.396,0.442c-0.109,0.17-0.19,0.364-0.248,0.584H371.966z
		 M373.771,15.415h-5.454c0.049,0.625,0.253,1.124,0.608,1.491c0.362,0.365,0.824,0.547,1.386,0.547c0.437,0,0.8-0.104,1.084-0.311
		c0.281-0.209,0.603-0.592,0.962-1.155l1.482,0.827c-0.229,0.391-0.472,0.726-0.725,1.005c-0.254,0.275-0.53,0.506-0.819,0.686
		c-0.294,0.179-0.606,0.311-0.943,0.395c-0.34,0.082-0.708,0.122-1.104,0.122c-1.138,0-2.048-0.363-2.732-1.092
		c-0.69-0.735-1.03-1.707-1.03-2.92c0-1.205,0.329-2.177,0.998-2.924c0.67-0.732,1.563-1.099,2.672-1.099
		c1.119,0,2.003,0.357,2.655,1.071c0.645,0.707,0.968,1.688,0.968,2.944L373.771,15.415z"/>
	<rect x="375.692" y="5.614" fill="#231F20" width="1.759" height="13.193"/>
	<path fill="#231F20" d="M384.097,12.496l-1.452,0.772c-0.228-0.463-0.513-0.697-0.853-0.697c-0.16,0-0.297,0.053-0.414,0.16
		c-0.112,0.107-0.173,0.244-0.173,0.412c0,0.291,0.341,0.579,1.017,0.866c0.933,0.4,1.562,0.768,1.883,1.107
		c0.323,0.337,0.486,0.793,0.486,1.366c0,0.732-0.272,1.346-0.814,1.841c-0.526,0.467-1.16,0.701-1.905,0.701
		c-1.277,0-2.179-0.621-2.713-1.867l1.501-0.693c0.209,0.364,0.369,0.596,0.479,0.693c0.212,0.197,0.468,0.297,0.766,0.297
		c0.592,0,0.89-0.269,0.89-0.813c0-0.312-0.23-0.602-0.689-0.873c-0.174-0.09-0.35-0.175-0.53-0.26
		c-0.176-0.082-0.356-0.168-0.538-0.258c-0.512-0.247-0.869-0.496-1.077-0.749c-0.266-0.318-0.4-0.725-0.4-1.225
		c0-0.662,0.229-1.208,0.682-1.644c0.462-0.429,1.026-0.645,1.686-0.645C382.898,10.987,383.624,11.49,384.097,12.496"/>
	<path fill="#231F20" d="M170.318,34.174c0,0.731,0.198,1.326,0.589,1.782c0.4,0.463,0.906,0.695,1.513,0.695
		c0.651,0,1.178-0.223,1.577-0.671c0.402-0.463,0.603-1.052,0.603-1.766c0-0.713-0.201-1.303-0.603-1.767
		c-0.399-0.452-0.919-0.677-1.56-0.677c-0.604,0-1.111,0.227-1.517,0.686C170.519,32.921,170.318,33.492,170.318,34.174
		 M174.491,24.81h1.763v13.191h-1.763v-0.795c-0.694,0.675-1.476,1.015-2.351,1.015c-1.042,0-1.905-0.38-2.593-1.139
		c-0.683-0.777-1.024-1.746-1.024-2.908c0-1.133,0.341-2.082,1.024-2.84c0.677-0.766,1.528-1.151,2.554-1.151
		c0.891,0,1.686,0.367,2.39,1.094V24.81z"/>
	<path fill="#231F20" d="M183.6,33.175c-0.246-0.937-0.838-1.406-1.773-1.406c-0.214,0-0.414,0.033-0.604,0.098
		c-0.189,0.066-0.358,0.16-0.511,0.281c-0.154,0.123-0.285,0.268-0.393,0.443c-0.111,0.171-0.193,0.366-0.25,0.584H183.6z
		 M185.405,34.612h-5.454c0.049,0.626,0.25,1.123,0.61,1.491c0.359,0.367,0.819,0.548,1.382,0.548c0.435,0,0.799-0.105,1.088-0.313
		c0.277-0.205,0.597-0.594,0.96-1.155l1.483,0.828c-0.229,0.392-0.473,0.726-0.726,1.004c-0.254,0.279-0.53,0.506-0.819,0.688
		c-0.292,0.179-0.607,0.31-0.947,0.394c-0.339,0.083-0.708,0.124-1.102,0.124c-1.136,0-2.048-0.366-2.734-1.094
		c-0.687-0.733-1.029-1.707-1.029-2.919c0-1.206,0.332-2.179,0.997-2.925c0.673-0.732,1.565-1.101,2.673-1.101
		c1.121,0,2.006,0.358,2.657,1.071c0.645,0.709,0.969,1.69,0.969,2.945L185.405,34.612z"/>
	<rect x="192.261" y="24.811" fill="#231F20" width="1.761" height="13.191"/>
	<path fill="#231F20" d="M197.683,34.175c0,0.729,0.197,1.323,0.588,1.779c0.4,0.465,0.906,0.697,1.513,0.697
		c0.651,0,1.177-0.224,1.576-0.672c0.403-0.463,0.604-1.051,0.604-1.765c0-0.713-0.2-1.304-0.604-1.767
		c-0.399-0.452-0.919-0.678-1.559-0.678c-0.605,0-1.111,0.229-1.517,0.686C197.884,32.918,197.683,33.492,197.683,34.175
		 M201.854,30.394h1.764V38h-1.764v-0.794c-0.726,0.676-1.505,1.016-2.337,1.016c-1.051,0-1.92-0.38-2.608-1.14
		c-0.681-0.777-1.023-1.746-1.023-2.907c0-1.142,0.343-2.091,1.023-2.851c0.684-0.759,1.535-1.142,2.562-1.142
		c0.884,0,1.68,0.367,2.384,1.094V30.394z"/>
	<path fill="#231F20" d="M216.695,30.723v2.336c-0.399-0.491-0.761-0.826-1.078-1.008c-0.312-0.186-0.679-0.282-1.101-0.282
		c-0.663,0-1.209,0.232-1.65,0.695c-0.438,0.465-0.653,1.044-0.653,1.745c0,0.711,0.211,1.297,0.63,1.756
		c0.428,0.456,0.972,0.688,1.633,0.688c0.423,0,0.795-0.092,1.117-0.275c0.313-0.176,0.681-0.52,1.103-1.031v2.32
		c-0.713,0.37-1.429,0.557-2.141,0.557c-1.178,0-2.16-0.383-2.95-1.143c-0.795-0.766-1.188-1.714-1.188-2.852
		c0-1.133,0.398-2.092,1.204-2.873c0.799-0.781,1.786-1.174,2.95-1.174C215.319,30.182,216.029,30.362,216.695,30.723"/>
	<path fill="#231F20" d="M218.812,24.81h1.757v6.219c0.625-0.564,1.315-0.846,2.071-0.846c0.857,0,1.546,0.28,2.062,0.838
		c0.436,0.483,0.656,1.257,0.656,2.318v4.662h-1.759v-4.497c0-0.612-0.108-1.052-0.324-1.324s-0.563-0.41-1.043-0.41
		c-0.614,0-1.047,0.189-1.297,0.572c-0.244,0.382-0.367,1.044-0.367,1.982v3.677h-1.757V24.81z"/>
	<path fill="#231F20" d="M229.023,34.175c0,0.729,0.193,1.323,0.584,1.779c0.402,0.465,0.906,0.697,1.516,0.697
		c0.65,0,1.176-0.224,1.576-0.672c0.4-0.463,0.604-1.051,0.604-1.765c0-0.713-0.204-1.304-0.604-1.767
		c-0.4-0.452-0.92-0.678-1.562-0.678c-0.605,0-1.111,0.229-1.515,0.686C229.222,32.918,229.023,33.492,229.023,34.175
		 M233.191,30.394h1.765V38h-1.765v-0.794c-0.724,0.676-1.502,1.016-2.334,1.016c-1.052,0-1.92-0.38-2.609-1.14
		c-0.683-0.777-1.025-1.746-1.025-2.907c0-1.142,0.343-2.091,1.025-2.851c0.68-0.759,1.534-1.142,2.561-1.142
		c0.886,0,1.681,0.367,2.383,1.094V30.394z"/>
	<path fill="#231F20" d="M237.175,30.394h1.766v0.704c0.614-0.608,1.308-0.915,2.077-0.915c0.886,0,1.578,0.282,2.07,0.838
		c0.428,0.473,0.642,1.246,0.642,2.318V38h-1.767v-4.244c0-0.748-0.104-1.266-0.31-1.55c-0.204-0.291-0.574-0.437-1.11-0.437
		c-0.585,0-0.996,0.191-1.242,0.579c-0.242,0.379-0.36,1.042-0.36,1.988V38h-1.766V30.394z"/>
	<path fill="#231F20" d="M250.368,31.692l-1.451,0.769c-0.23-0.46-0.513-0.692-0.853-0.692c-0.16,0-0.299,0.051-0.413,0.161
		c-0.114,0.105-0.174,0.244-0.174,0.409c0,0.291,0.338,0.58,1.017,0.867c0.934,0.399,1.561,0.768,1.883,1.107
		c0.323,0.34,0.485,0.793,0.485,1.366c0,0.732-0.27,1.346-0.813,1.84c-0.527,0.468-1.16,0.703-1.904,0.703
		c-1.276,0-2.181-0.622-2.713-1.868l1.5-0.695c0.209,0.364,0.369,0.597,0.477,0.695c0.215,0.198,0.47,0.297,0.766,0.297
		c0.595,0,0.894-0.27,0.894-0.814c0-0.308-0.232-0.602-0.689-0.872c-0.177-0.09-0.354-0.176-0.534-0.26
		c-0.175-0.082-0.354-0.168-0.536-0.258c-0.512-0.248-0.869-0.498-1.079-0.748c-0.265-0.319-0.398-0.727-0.398-1.226
		c0-0.662,0.229-1.209,0.683-1.642c0.462-0.432,1.024-0.649,1.685-0.649C249.174,30.182,249.896,30.686,250.368,31.692"/>
	<path fill="#231F20" d="M253.875,34.175c0,0.76,0.204,1.362,0.61,1.804c0.416,0.447,0.967,0.673,1.646,0.673
		c0.688,0,1.238-0.222,1.649-0.663c0.411-0.444,0.617-1.036,0.617-1.777c0-0.737-0.206-1.327-0.617-1.772
		c-0.416-0.448-0.966-0.669-1.649-0.669c-0.671,0-1.215,0.221-1.633,0.669C254.085,32.887,253.875,33.466,253.875,34.175
		 M252.081,34.144c0-1.099,0.39-2.033,1.179-2.803c0.785-0.773,1.743-1.158,2.872-1.158c1.137,0,2.101,0.389,2.893,1.163
		c0.779,0.777,1.173,1.73,1.173,2.862c0,1.139-0.396,2.095-1.182,2.865c-0.792,0.765-1.764,1.149-2.914,1.149
		c-1.139,0-2.097-0.391-2.868-1.172C252.464,36.278,252.081,35.31,252.081,34.144"/>
	<path fill="#231F20" d="M262.056,30.394h1.764v0.704c0.617-0.608,1.308-0.915,2.078-0.915c0.887,0,1.576,0.282,2.067,0.838
		c0.429,0.473,0.643,1.246,0.643,2.318V38h-1.768v-4.244c0-0.748-0.101-1.266-0.307-1.55c-0.206-0.291-0.576-0.437-1.109-0.437
		c-0.586,0-1,0.191-1.243,0.579c-0.241,0.379-0.361,1.042-0.361,1.988V38h-1.764V30.394z"/>
	<path fill="#231F20" d="M280.887,33.175c-0.245-0.937-0.835-1.406-1.769-1.406c-0.217,0-0.414,0.033-0.605,0.098
		c-0.188,0.066-0.36,0.16-0.512,0.281c-0.151,0.123-0.284,0.268-0.394,0.443c-0.108,0.171-0.192,0.366-0.249,0.584H280.887z
		 M282.691,34.612h-5.45c0.047,0.626,0.249,1.123,0.608,1.491c0.36,0.367,0.82,0.548,1.383,0.548c0.437,0,0.796-0.105,1.087-0.313
		c0.28-0.205,0.601-0.594,0.96-1.155l1.482,0.828c-0.228,0.392-0.47,0.726-0.725,1.004c-0.255,0.279-0.527,0.506-0.818,0.688
		c-0.293,0.179-0.61,0.31-0.948,0.394c-0.339,0.083-0.706,0.124-1.101,0.124c-1.135,0-2.047-0.366-2.734-1.094
		c-0.687-0.733-1.029-1.707-1.029-2.919c0-1.206,0.333-2.179,0.998-2.925c0.673-0.732,1.562-1.101,2.671-1.101
		c1.12,0,2.007,0.358,2.655,1.071c0.647,0.709,0.973,1.69,0.973,2.945L282.691,34.612z"/>
	<polygon fill="#231F20" points="286.565,32.036 286.565,38.001 284.809,38.001 284.809,32.036 284.058,32.036 284.058,30.395 
		284.809,30.395 284.809,27.604 286.565,27.604 286.565,30.395 287.933,30.395 287.933,32.036 	"/>
	<path fill="#231F20" d="M295.502,34.174c0,0.731,0.196,1.326,0.588,1.782c0.4,0.463,0.904,0.695,1.514,0.695
		c0.65,0,1.177-0.223,1.577-0.671c0.399-0.463,0.602-1.052,0.602-1.766c0-0.713-0.202-1.303-0.602-1.767
		c-0.4-0.452-0.92-0.677-1.562-0.677c-0.604,0-1.111,0.227-1.514,0.686C295.702,32.921,295.502,33.492,295.502,34.174
		 M299.674,24.81h1.764v13.191h-1.764v-0.795c-0.695,0.675-1.478,1.015-2.353,1.015c-1.042,0-1.904-0.38-2.591-1.139
		c-0.683-0.777-1.025-1.746-1.025-2.908c0-1.133,0.343-2.082,1.025-2.84c0.678-0.766,1.526-1.151,2.553-1.151
		c0.891,0,1.688,0.367,2.391,1.094V24.81z"/>
	<path fill="#231F20" d="M308.782,33.175c-0.247-0.937-0.836-1.406-1.774-1.406c-0.214,0-0.412,0.033-0.6,0.098
		c-0.188,0.066-0.36,0.16-0.515,0.281c-0.151,0.123-0.282,0.268-0.392,0.443c-0.112,0.171-0.195,0.366-0.25,0.584H308.782z
		 M310.584,34.612h-5.45c0.047,0.626,0.25,1.123,0.609,1.491c0.361,0.367,0.821,0.548,1.386,0.548c0.435,0,0.795-0.105,1.084-0.313
		c0.281-0.205,0.601-0.594,0.962-1.155l1.479,0.828c-0.23,0.392-0.471,0.726-0.723,1.004c-0.256,0.279-0.529,0.506-0.821,0.688
		c-0.292,0.179-0.605,0.31-0.944,0.394c-0.34,0.083-0.706,0.124-1.102,0.124c-1.138,0-2.047-0.366-2.734-1.094
		c-0.688-0.733-1.031-1.707-1.031-2.919c0-1.206,0.331-2.179,0.999-2.925c0.672-0.732,1.563-1.101,2.671-1.101
		c1.121,0,2.004,0.358,2.657,1.071c0.646,0.709,0.966,1.69,0.966,2.945L310.584,34.612z"/>
	<rect x="317.444" y="24.811" fill="#231F20" width="1.758" height="13.191"/>
	<path fill="#231F20" d="M322.864,34.175c0,0.729,0.195,1.323,0.589,1.779c0.402,0.465,0.906,0.697,1.516,0.697
		c0.648,0,1.176-0.224,1.574-0.672c0.403-0.463,0.602-1.051,0.602-1.765c0-0.713-0.198-1.304-0.602-1.767
		c-0.398-0.452-0.92-0.678-1.56-0.678c-0.604,0-1.111,0.229-1.518,0.686C323.064,32.918,322.864,33.492,322.864,34.175
		 M327.037,30.394h1.765V38h-1.765v-0.794c-0.727,0.676-1.505,1.016-2.336,1.016c-1.053,0-1.922-0.38-2.608-1.14
		c-0.683-0.777-1.023-1.746-1.023-2.907c0-1.142,0.341-2.091,1.023-2.851c0.682-0.759,1.535-1.142,2.56-1.142
		c0.886,0,1.683,0.367,2.385,1.094V30.394z"/>
	<path fill="#231F20" d="M335.956,30.394h1.759v0.704c0.341-0.354,0.628-0.593,0.868-0.718c0.254-0.131,0.572-0.197,0.958-0.197
		c0.86,0,1.538,0.377,2.039,1.124c0.551-0.747,1.299-1.124,2.242-1.124c1.713,0,2.569,1.041,2.569,3.117V38h-1.765v-4.225
		c0-0.727-0.087-1.243-0.266-1.544c-0.185-0.308-0.482-0.462-0.897-0.462c-0.485,0-0.839,0.184-1.058,0.548
		c-0.224,0.362-0.333,0.95-0.333,1.757V38h-1.766v-4.2c0-1.357-0.394-2.031-1.173-2.031c-0.495,0-0.854,0.185-1.079,0.554
		c-0.229,0.371-0.341,0.955-0.341,1.751V38h-1.759V30.394z"/>
	<path fill="#231F20" d="M350.369,30.394v4.366c0,1.264,0.498,1.892,1.492,1.892c0.992,0,1.492-0.628,1.492-1.892v-4.366h1.756
		v4.406c0,0.608-0.075,1.137-0.226,1.579c-0.146,0.396-0.399,0.752-0.758,1.069c-0.592,0.516-1.352,0.775-2.265,0.775
		c-0.912,0-1.666-0.259-2.259-0.775c-0.364-0.317-0.622-0.673-0.774-1.069c-0.144-0.355-0.218-0.88-0.218-1.579v-4.406H350.369z"/>
	<path fill="#231F20" d="M361.748,31.692l-1.451,0.769c-0.23-0.46-0.514-0.692-0.853-0.692c-0.159,0-0.299,0.051-0.413,0.161
		c-0.114,0.105-0.172,0.244-0.172,0.409c0,0.291,0.336,0.58,1.016,0.867c0.933,0.399,1.56,0.768,1.882,1.107
		c0.323,0.34,0.485,0.793,0.485,1.366c0,0.732-0.271,1.346-0.813,1.84c-0.526,0.468-1.16,0.703-1.904,0.703
		c-1.276,0-2.181-0.622-2.713-1.868l1.5-0.695c0.209,0.364,0.369,0.597,0.477,0.695c0.214,0.198,0.471,0.297,0.767,0.297
		c0.593,0,0.893-0.27,0.893-0.814c0-0.308-0.232-0.602-0.689-0.872c-0.178-0.09-0.355-0.176-0.534-0.26
		c-0.175-0.082-0.354-0.168-0.536-0.258c-0.511-0.248-0.87-0.498-1.079-0.748c-0.265-0.319-0.398-0.727-0.398-1.226
		c0-0.662,0.229-1.209,0.682-1.642c0.462-0.432,1.025-0.649,1.684-0.649C360.553,30.182,361.274,30.686,361.748,31.692"/>
	<path fill="#231F20" d="M365.574,38.001h-1.756v-7.608h1.756V38.001z M363.555,27.23c0-0.307,0.113-0.573,0.337-0.796
		c0.221-0.227,0.492-0.338,0.802-0.338c0.32,0,0.59,0.111,0.813,0.338c0.222,0.219,0.336,0.485,0.336,0.805
		c0,0.317-0.114,0.588-0.336,0.811c-0.22,0.226-0.486,0.335-0.804,0.335c-0.318,0-0.591-0.109-0.812-0.335
		C363.668,27.828,363.555,27.553,363.555,27.23"/>
	<path fill="#231F20" d="M369.238,34.161c0,0.733,0.199,1.329,0.594,1.787c0.398,0.469,0.901,0.703,1.509,0.703
		c0.647,0,1.169-0.223,1.569-0.671c0.407-0.453,0.612-1.043,0.612-1.767c0-0.712-0.201-1.303-0.602-1.766
		c-0.403-0.451-0.923-0.677-1.564-0.677c-0.604,0-1.109,0.227-1.517,0.686C369.44,32.919,369.238,33.487,369.238,34.161
		 M373.411,42.143v-4.992c-0.698,0.712-1.495,1.072-2.389,1.072c-1.026,0-1.88-0.379-2.556-1.136
		c-0.683-0.76-1.023-1.71-1.023-2.851c0-1.153,0.341-2.12,1.023-2.896c0.687-0.772,1.55-1.157,2.588-1.157
		c0.877,0,1.663,0.347,2.356,1.041v-0.831h1.765v11.75H373.411z"/>
	<path fill="#231F20" d="M379.333,30.394v4.366c0,1.264,0.496,1.892,1.491,1.892s1.491-0.628,1.491-1.892v-4.366h1.758v4.406
		c0,0.608-0.075,1.137-0.227,1.579c-0.145,0.396-0.396,0.752-0.754,1.069c-0.594,0.516-1.351,0.775-2.269,0.775
		c-0.91,0-1.664-0.259-2.257-0.775c-0.365-0.317-0.626-0.673-0.773-1.069c-0.146-0.355-0.218-0.88-0.218-1.579v-4.406H379.333z"/>
	<path fill="#231F20" d="M391.415,33.175c-0.243-0.937-0.835-1.406-1.774-1.406c-0.212,0-0.411,0.033-0.6,0.098
		c-0.188,0.066-0.358,0.16-0.513,0.281c-0.153,0.123-0.284,0.268-0.394,0.443c-0.109,0.171-0.191,0.366-0.248,0.584H391.415z
		 M393.219,34.612h-5.453c0.05,0.626,0.254,1.123,0.609,1.491c0.364,0.367,0.822,0.548,1.386,0.548c0.436,0,0.797-0.105,1.084-0.313
		c0.282-0.205,0.604-0.594,0.963-1.155l1.482,0.828c-0.231,0.392-0.471,0.726-0.725,1.004c-0.254,0.279-0.53,0.506-0.819,0.688
		c-0.293,0.179-0.609,0.31-0.945,0.394c-0.339,0.083-0.707,0.124-1.104,0.124c-1.134,0-2.046-0.366-2.732-1.094
		c-0.688-0.733-1.029-1.707-1.029-2.919c0-1.206,0.331-2.179,1-2.925c0.668-0.732,1.562-1.101,2.67-1.101
		c1.119,0,2.004,0.358,2.653,1.071c0.649,0.709,0.97,1.69,0.97,2.945L393.219,34.612z"/>
</g>
</svg>
